<svg width="181" height="51" viewBox="0 0 181 51" fill="none" xmlns="http://www.w3.org/2000/svg">
<rect x="0.328125" y="0.607422" width="180" height="50" rx="10" fill="#3531A9"/>
<path d="M50.1426 37.6074H52.9639L48.5518 24.9248H45.4316L41.0283 37.6074H43.7529L44.7197 34.5312H49.1758L50.1426 37.6074ZM46.917 27.3506H46.9785L48.6045 32.5449H45.291L46.917 27.3506ZM59.5469 28.0361C58.1846 28.0361 57.1387 28.7217 56.6289 29.8291H56.5762V28.1855H54.0449V40.6836H56.6113V36.0254H56.6641C57.165 37.0889 58.2197 37.7568 59.5908 37.7568C61.9463 37.7568 63.4053 35.9287 63.4053 32.8965C63.4053 29.8555 61.9375 28.0361 59.5469 28.0361ZM58.6855 35.6914C57.4287 35.6914 56.6025 34.6016 56.6025 32.8965C56.6025 31.209 57.4287 30.0928 58.6855 30.0928C59.9687 30.0928 60.7773 31.1914 60.7773 32.8965C60.7773 34.6104 59.9687 35.6914 58.6855 35.6914ZM70.2344 28.0361C68.8721 28.0361 67.8262 28.7217 67.3164 29.8291H67.2637V28.1855H64.7324V40.6836H67.2988V36.0254H67.3516C67.8525 37.0889 68.9072 37.7568 70.2783 37.7568C72.6338 37.7568 74.0928 35.9287 74.0928 32.8965C74.0928 29.8555 72.625 28.0361 70.2344 28.0361ZM69.373 35.6914C68.1162 35.6914 67.29 34.6016 67.29 32.8965C67.29 31.209 68.1162 30.0928 69.373 30.0928C70.6562 30.0928 71.4648 31.1914 71.4648 32.8965C71.4648 34.6104 70.6562 35.6914 69.373 35.6914ZM75.4814 37.6074H78.0478V24.9248H75.4814V37.6074ZM84.0068 29.8818C85.1494 29.8818 85.9316 30.708 85.9844 31.9121H81.9853C82.0732 30.7344 82.8818 29.8818 84.0068 29.8818ZM86.0195 34.7246C85.7822 35.4453 85.0615 35.9111 84.1211 35.9111C82.8115 35.9111 81.959 34.9883 81.959 33.6436V33.4854H88.4541V32.7031C88.4541 29.8379 86.7227 27.9834 83.9805 27.9834C81.1943 27.9834 79.4365 29.9346 79.4365 32.9404C79.4365 35.9551 81.1768 37.8096 84.0771 37.8096C86.4062 37.8096 88.0937 36.5703 88.375 34.7246H86.0195ZM98.8516 28.0361C97.4893 28.0361 96.4434 28.7217 95.9336 29.8291H95.8809V28.1855H93.3496V40.6836H95.916V36.0254H95.9687C96.4697 37.0889 97.5244 37.7568 98.8955 37.7568C101.251 37.7568 102.71 35.9287 102.71 32.8965C102.71 29.8555 101.242 28.0361 98.8516 28.0361ZM97.9902 35.6914C96.7334 35.6914 95.9072 34.6016 95.9072 32.8965C95.9072 31.209 96.7334 30.0928 97.9902 30.0928C99.2734 30.0928 100.082 31.1914 100.082 32.8965C100.082 34.6104 99.2734 35.6914 97.9902 35.6914ZM108.361 37.8096C111.209 37.8096 113.028 35.9902 113.028 32.8877C113.028 29.8291 111.183 27.9834 108.361 27.9834C105.54 27.9834 103.694 29.8379 103.694 32.8877C103.694 35.9814 105.514 37.8096 108.361 37.8096ZM108.361 35.8496C107.096 35.8496 106.296 34.7861 106.296 32.8965C106.296 31.0244 107.113 29.9434 108.361 29.9434C109.609 29.9434 110.418 31.0244 110.418 32.8965C110.418 34.7861 109.618 35.8496 108.361 35.8496ZM117.854 37.7568C119.242 37.7568 120.332 37.0273 120.789 35.9902H120.833V37.6074H123.364V24.9248H120.798V29.8027H120.745C120.288 28.7568 119.233 28.0361 117.871 28.0361C115.507 28.0361 114.013 29.8906 114.013 32.8789C114.013 35.8936 115.498 37.7568 117.854 37.7568ZM118.724 30.0928C119.998 30.0928 120.815 31.1826 120.815 32.8965C120.815 34.6191 119.998 35.6914 118.724 35.6914C117.432 35.6914 116.641 34.6279 116.641 32.8965C116.641 31.1738 117.432 30.0928 118.724 30.0928ZM133.639 31.6924C133.524 29.5566 131.907 27.9834 129.358 27.9834C126.537 27.9834 124.735 29.8643 124.735 32.8877C124.735 35.9639 126.537 37.8096 129.376 37.8096C131.854 37.8096 133.516 36.377 133.647 34.1533H131.257C131.099 35.1816 130.431 35.7969 129.402 35.7969C128.128 35.7969 127.337 34.7422 127.337 32.8877C127.337 31.0684 128.128 29.9961 129.394 29.9961C130.448 29.9961 131.107 30.6992 131.257 31.6924H133.639ZM138.525 35.9023C137.655 35.9023 137.075 35.4629 137.075 34.7598C137.075 34.0918 137.62 33.6611 138.578 33.5908L140.564 33.4678V34.1533C140.564 35.1729 139.642 35.9023 138.525 35.9023ZM137.682 37.7568C138.859 37.7568 140.028 37.168 140.556 36.166H140.608V37.6074H143.087V31.1299C143.087 29.2314 141.514 27.9834 139.097 27.9834C136.601 27.9834 135.045 29.2402 134.948 31.0684H137.295C137.418 30.374 138.024 29.8994 138.982 29.8994C139.949 29.8994 140.564 30.4092 140.564 31.2881V31.9121L138.191 32.0527C135.845 32.1934 134.526 33.1865 134.526 34.9004C134.526 36.5967 135.889 37.7568 137.682 37.7568ZM144.59 30.9541C144.59 32.3428 145.504 33.2744 147.288 33.6787L149.028 34.0654C149.872 34.2676 150.188 34.5312 150.188 35.0059C150.188 35.6211 149.6 36.0078 148.624 36.0078C147.604 36.0078 146.98 35.5508 146.857 34.7598H144.353C144.493 36.5967 146.04 37.8096 148.554 37.8096C151.041 37.8096 152.746 36.5879 152.746 34.7334C152.746 33.3271 151.981 32.5801 150.092 32.1582L148.29 31.7715C147.464 31.5781 147.06 31.2617 147.06 30.7959C147.06 30.1895 147.64 29.7852 148.527 29.7852C149.477 29.7852 150.083 30.251 150.136 31.0068H152.5C152.465 29.1787 150.927 27.9834 148.562 27.9834C146.146 27.9834 144.59 29.1611 144.59 30.9541ZM154.715 26.0146V28.1855H153.388V30.1191H154.715V35.0674C154.715 36.9043 155.576 37.6426 157.791 37.6426C158.31 37.6426 158.749 37.5986 159.013 37.5371V35.6475C158.854 35.6738 158.617 35.6914 158.389 35.6914C157.633 35.6914 157.281 35.3486 157.281 34.6279V30.1191H159.021V28.1855H157.281V26.0146H154.715ZM160.27 30.9541C160.27 32.3428 161.184 33.2744 162.968 33.6787L164.708 34.0654C165.552 34.2676 165.868 34.5312 165.868 35.0059C165.868 35.6211 165.279 36.0078 164.304 36.0078C163.284 36.0078 162.66 35.5508 162.537 34.7598H160.032C160.173 36.5967 161.72 37.8096 164.233 37.8096C166.721 37.8096 168.426 36.5879 168.426 34.7334C168.426 33.3271 167.661 32.5801 165.771 32.1582L163.97 31.7715C163.144 31.5781 162.739 31.2617 162.739 30.7959C162.739 30.1895 163.319 29.7852 164.207 29.7852C165.156 29.7852 165.763 30.251 165.815 31.0068H168.18C168.145 29.1787 166.606 27.9834 164.242 27.9834C161.825 27.9834 160.27 29.1611 160.27 30.9541Z" fill="white"/>
<path d="M48.166 14.2324H48.2246L50.0527 20.6074H51.2891L53.5742 12.1523H52.209L50.6445 18.7734H50.5977L48.8047 12.1523H47.5859L45.7988 18.7734H45.752L44.1875 12.1523H42.8223L45.1016 20.6074H46.3437L48.166 14.2324ZM56.375 15.3516C57.2598 15.3516 57.8574 16.0137 57.8867 16.957H54.8047C54.8691 16.0254 55.4902 15.3516 56.375 15.3516ZM57.8809 18.7969C57.7109 19.3359 57.1777 19.6992 56.457 19.6992C55.4434 19.6992 54.7988 18.9902 54.7988 17.918V17.8418H59.1523V17.4082C59.1523 15.5391 58.0859 14.332 56.375 14.332C54.6348 14.332 53.5215 15.6211 53.5215 17.5547C53.5215 19.5 54.6172 20.7246 56.4277 20.7246C57.8398 20.7246 58.9062 19.9219 59.082 18.7969H57.8809ZM64.7305 19.7109C64.0508 19.7109 63.6055 19.3594 63.6055 18.8203C63.6055 18.293 64.0332 17.959 64.7891 17.9062L66.3066 17.8125V18.2988C66.3066 19.1016 65.6152 19.7109 64.7305 19.7109ZM64.3789 20.7129C65.1875 20.7129 65.9668 20.2793 66.3242 19.5937H66.3535V20.6074H67.5664V16.3594C67.5664 15.123 66.6113 14.332 65.1172 14.332C63.5937 14.332 62.6445 15.1523 62.5742 16.2656H63.7695C63.8809 15.7148 64.3379 15.3633 65.0703 15.3633C65.8437 15.3633 66.3066 15.7734 66.3066 16.459V16.9336L64.6191 17.0332C63.1543 17.1152 62.3281 17.7773 62.3281 18.8555C62.3281 19.9629 63.1719 20.7129 64.3789 20.7129ZM68.7969 20.6074H70.0625V16.916C70.0625 16.043 70.5664 15.498 71.3809 15.498C71.627 15.498 71.8496 15.5273 71.9492 15.5684V14.3906C71.8555 14.373 71.6973 14.3437 71.5156 14.3437C70.7891 14.3437 70.2383 14.7715 70.0332 15.4922H70.0039V14.4434H68.7969V20.6074ZM75.043 15.3516C75.9277 15.3516 76.5254 16.0137 76.5547 16.957H73.4727C73.5371 16.0254 74.1582 15.3516 75.043 15.3516ZM76.5488 18.7969C76.3789 19.3359 75.8457 19.6992 75.125 19.6992C74.1113 19.6992 73.4668 18.9902 73.4668 17.918V17.8418H77.8203V17.4082C77.8203 15.5391 76.7539 14.332 75.043 14.332C73.3027 14.332 72.1895 15.6211 72.1895 17.5547C72.1895 19.5 73.2852 20.7246 75.0957 20.7246C76.5078 20.7246 77.5742 19.9219 77.75 18.7969H76.5488ZM81.2422 20.6074H82.5078V17.0156C82.5078 16.0605 83.082 15.4277 83.9727 15.4277C84.8516 15.4277 85.2852 15.9375 85.2852 16.8633V20.6074H86.5566V16.6172C86.5566 15.2051 85.7773 14.3379 84.418 14.3379C83.4687 14.3379 82.8125 14.7715 82.4785 15.4746H82.4492V14.4434H81.2422V20.6074ZM90.4297 20.7246C92.1934 20.7246 93.3535 19.5117 93.3535 17.5254C93.3535 15.5449 92.1875 14.332 90.4297 14.332C88.6719 14.332 87.5059 15.5449 87.5059 17.5254C87.5059 19.5117 88.666 20.7246 90.4297 20.7246ZM90.4297 19.6816C89.4394 19.6816 88.7949 18.8965 88.7949 17.5254C88.7949 16.1602 89.4394 15.375 90.4297 15.375C91.4199 15.375 92.0644 16.1602 92.0644 17.5254C92.0644 18.8965 91.4258 19.6816 90.4297 19.6816ZM102.441 14.4434H101.187L100.062 19.2949H100.033L98.7441 14.4434H97.5254L96.2422 19.2949H96.2187L95.0937 14.4434H93.8281L95.5215 20.6074H96.8281L98.1113 15.9902H98.1406L99.4355 20.6074H100.754L102.441 14.4434ZM107.809 19.7109C107.129 19.7109 106.684 19.3594 106.684 18.8203C106.684 18.293 107.111 17.959 107.867 17.9062L109.385 17.8125V18.2988C109.385 19.1016 108.693 19.7109 107.809 19.7109ZM107.457 20.7129C108.266 20.7129 109.045 20.2793 109.402 19.5937H109.432V20.6074H110.645V16.3594C110.645 15.123 109.689 14.332 108.195 14.332C106.672 14.332 105.723 15.1523 105.652 16.2656H106.848C106.959 15.7148 107.416 15.3633 108.148 15.3633C108.922 15.3633 109.385 15.7734 109.385 16.459V16.9336L107.697 17.0332C106.232 17.1152 105.406 17.7773 105.406 18.8555C105.406 19.9629 106.25 20.7129 107.457 20.7129ZM117.137 14.4434H115.812L114.266 19.3711H114.242L112.695 14.4434H111.348L113.568 20.6074H114.928L117.137 14.4434ZM119.891 19.7109C119.211 19.7109 118.766 19.3594 118.766 18.8203C118.766 18.293 119.193 17.959 119.949 17.9062L121.467 17.8125V18.2988C121.467 19.1016 120.775 19.7109 119.891 19.7109ZM119.539 20.7129C120.348 20.7129 121.127 20.2793 121.484 19.5937H121.514V20.6074H122.727V16.3594C122.727 15.123 121.771 14.332 120.277 14.332C118.754 14.332 117.805 15.1523 117.734 16.2656H118.93C119.041 15.7148 119.498 15.3633 120.23 15.3633C121.004 15.3633 121.467 15.7734 121.467 16.459V16.9336L119.779 17.0332C118.314 17.1152 117.488 17.7773 117.488 18.8555C117.488 19.9629 118.332 20.7129 119.539 20.7129ZM123.998 20.6074H125.264V14.4434H123.998V20.6074ZM124.631 13.541C125.041 13.541 125.369 13.2187 125.369 12.8203C125.369 12.416 125.041 12.0937 124.631 12.0937C124.227 12.0937 123.898 12.416 123.898 12.8203C123.898 13.2187 124.227 13.541 124.631 13.541ZM126.605 20.6074H127.871V12.1523H126.605V20.6074ZM131.328 19.7109C130.648 19.7109 130.203 19.3594 130.203 18.8203C130.203 18.293 130.631 17.959 131.387 17.9062L132.904 17.8125V18.2988C132.904 19.1016 132.213 19.7109 131.328 19.7109ZM130.977 20.7129C131.785 20.7129 132.564 20.2793 132.922 19.5937H132.951V20.6074H134.164V16.3594C134.164 15.123 133.209 14.332 131.715 14.332C130.191 14.332 129.242 15.1523 129.172 16.2656H130.367C130.479 15.7148 130.936 15.3633 131.668 15.3633C132.441 15.3633 132.904 15.7734 132.904 16.459V16.9336L131.217 17.0332C129.752 17.1152 128.926 17.7773 128.926 18.8555C128.926 19.9629 129.77 20.7129 130.977 20.7129ZM138.676 20.7129C140.24 20.7129 141.248 19.4824 141.248 17.5254C141.248 15.5742 140.234 14.3437 138.682 14.3437C137.809 14.3437 137.105 14.7773 136.736 15.4922H136.707V12.1523H135.441V20.6074H136.672V19.5586H136.695C137.076 20.2734 137.773 20.7129 138.676 20.7129ZM138.336 15.4102C139.332 15.4102 139.947 16.2305 139.947 17.5254C139.947 18.832 139.332 19.6406 138.336 19.6406C137.375 19.6406 136.701 18.8086 136.701 17.5254C136.701 16.2539 137.375 15.4102 138.336 15.4102ZM142.285 20.6074H143.551V12.1523H142.285V20.6074ZM147.43 15.3516C148.314 15.3516 148.912 16.0137 148.941 16.957H145.859C145.924 16.0254 146.545 15.3516 147.43 15.3516ZM148.936 18.7969C148.766 19.3359 148.232 19.6992 147.512 19.6992C146.498 19.6992 145.854 18.9902 145.854 17.918V17.8418H150.207V17.4082C150.207 15.5391 149.141 14.332 147.43 14.332C145.689 14.332 144.576 15.6211 144.576 17.5547C144.576 19.5 145.672 20.7246 147.482 20.7246C148.895 20.7246 149.961 19.9219 150.137 18.7969H148.936ZM156.277 20.7246C158.041 20.7246 159.201 19.5117 159.201 17.5254C159.201 15.5449 158.035 14.332 156.277 14.332C154.52 14.332 153.354 15.5449 153.354 17.5254C153.354 19.5117 154.514 20.7246 156.277 20.7246ZM156.277 19.6816C155.287 19.6816 154.643 18.8965 154.643 17.5254C154.643 16.1602 155.287 15.375 156.277 15.375C157.268 15.375 157.912 16.1602 157.912 17.5254C157.912 18.8965 157.273 19.6816 156.277 19.6816ZM160.18 20.6074H161.445V17.0156C161.445 16.0605 162.02 15.4277 162.91 15.4277C163.789 15.4277 164.223 15.9375 164.223 16.8633V20.6074H165.494V16.6172C165.494 15.2051 164.715 14.3379 163.355 14.3379C162.406 14.3379 161.75 14.7715 161.416 15.4746H161.387V14.4434H160.18V20.6074Z" fill="white"/>
<g clip-path="url(#clip0_23_729)">
<path d="M17.6681 13.6074C16.9663 13.6055 16.271 13.7422 15.6223 14.0099C14.9735 14.2776 14.384 14.6708 13.8878 15.1671C13.3915 15.6633 12.9983 16.2528 12.7306 16.9016C12.4629 17.5503 12.3262 18.2456 12.3281 18.9474V32.2674C12.3262 32.9693 12.4629 33.6645 12.7306 34.3133C12.9983 34.9621 13.3915 35.5515 13.8878 36.0478C14.384 36.5441 14.9735 36.9373 15.6223 37.205C16.271 37.4726 16.9663 37.6094 17.6681 37.6074H30.9881C31.69 37.6094 32.3852 37.4726 33.034 37.205C33.6828 36.9373 34.2722 36.5441 34.7685 36.0478C35.2648 35.5515 35.658 34.9621 35.9257 34.3133C36.1934 33.6645 36.3301 32.9693 36.3281 32.2674V18.9474C36.3301 18.2456 36.1934 17.5503 35.9257 16.9016C35.658 16.2528 35.2648 15.6633 34.7685 15.1671C34.2722 14.6708 33.6828 14.2776 33.034 14.0099C32.3852 13.7422 31.69 13.6055 30.9881 13.6074H17.6681ZM24.1909 16.1732C26.5271 16.1732 28.6399 17.0762 30.2501 18.7629C31.4734 20.0327 32.1604 21.3797 32.5121 23.1542C32.6329 23.7444 32.6329 25.3532 32.5189 26.0169C32.1454 28.1275 30.9891 30.0193 29.2811 31.3142C28.6721 31.7754 27.1834 32.5764 26.9449 32.5764C26.8549 32.5764 26.8481 32.4864 26.8871 32.1152C26.9614 31.5212 27.0311 31.4004 27.3671 31.2594C27.9019 31.0374 28.8161 30.3842 29.3749 29.8262C30.3517 28.8496 31.0456 27.6265 31.3826 26.2869C31.5934 25.4619 31.5656 23.6297 31.3354 22.7829C30.6086 20.0867 28.4051 17.9942 25.7104 17.4309C24.9296 17.2712 23.5031 17.2712 22.7104 17.4309C19.9834 17.9942 17.7251 20.1932 17.0381 22.9592C16.8544 23.7122 16.8544 25.5452 17.0381 26.2952C17.4949 28.1274 18.6791 29.8059 20.2294 30.8064C20.5346 31.0097 20.9014 31.2167 21.0544 31.2797C21.3896 31.4237 21.4646 31.5459 21.5261 32.1347C21.5651 32.4984 21.5569 32.5997 21.4721 32.5997C21.4174 32.5997 21.0071 32.4234 20.5729 32.2164L20.5339 32.1857C18.0611 30.9707 16.4786 28.9127 15.9011 26.1737C15.7609 25.4664 15.7331 23.7834 15.8741 23.1347C16.2334 21.3924 16.9211 20.0334 18.0649 18.8304C19.7141 17.0912 21.8351 16.1732 24.1939 16.1732H24.1909ZM24.3281 18.9864C24.6989 18.9856 25.0689 19.0207 25.4329 19.0914C28.2191 19.7124 30.1909 22.4987 29.8076 25.2632C29.6554 26.3799 29.2729 27.2949 28.5934 28.1462C28.2574 28.5759 27.4406 29.2952 27.2966 29.2952C27.2726 29.2952 27.2494 29.0214 27.2494 28.6929V28.0869L27.6634 27.5912C29.2331 25.7124 29.1206 23.0874 27.4091 21.3692C26.7454 20.6972 25.9751 20.3019 24.9829 20.1234C24.3431 20.0027 24.2096 20.0027 23.5376 20.1152C22.5146 20.2794 21.7249 20.6732 21.0214 21.3692C19.3031 23.0724 19.1891 25.7124 20.7604 27.5912L21.1744 28.0869V28.6967C21.1744 29.0327 21.1466 29.3019 21.1114 29.3019C21.0844 29.3019 20.8496 29.1422 20.5991 28.9427L20.5639 28.9307C19.7321 28.2669 18.9979 27.0909 18.6926 25.9344C18.5096 25.2354 18.5096 23.9117 18.7009 23.2157C19.2049 21.3369 20.5916 19.8797 22.5101 19.1964C22.9204 19.0517 23.6419 18.9737 24.3221 18.9857L24.3281 18.9864ZM24.1954 21.9744C24.5081 21.9744 24.8164 22.0374 25.0436 22.1544C25.5274 22.4087 25.9309 22.8962 26.0824 23.4122C26.5474 24.9902 24.8756 26.3732 23.3591 25.6659H23.3479C22.6331 25.3337 22.2499 24.7089 22.2416 23.8959C22.2416 23.1617 22.6474 22.5249 23.3546 22.1499C23.5774 22.0329 23.8864 21.9737 24.1984 21.9737L24.1954 21.9744ZM24.1871 26.7054C25.1764 26.7017 25.8904 27.0527 26.1559 27.6737C26.3546 28.1387 26.2811 29.6034 25.9369 31.9749C25.7066 33.6309 25.5776 34.0487 25.2581 34.3307C24.8164 34.7207 24.1954 34.8309 23.6014 34.6194H23.5984C22.8836 34.3614 22.7306 34.0134 22.4336 31.9742C22.0946 29.6034 22.0196 28.1379 22.2199 27.6729C22.4809 27.0557 23.1919 26.7092 24.1879 26.7047L24.1871 26.7054Z" fill="white"/>
</g>
<defs>
<clipPath id="clip0_23_729">
<rect width="24" height="24" fill="white" transform="translate(12.3281 13.6074)"/>
</clipPath>
</defs>
</svg>
