<svg width="30" height="30" viewBox="0 0 30 30" fill="none" xmlns="http://www.w3.org/2000/svg">
<circle cx="15" cy="15" r="15" fill="#4303A4"/>
<path d="M15.0001 10.193C12.34 10.193 10.1931 12.3399 10.1931 15C10.1931 17.6602 12.34 19.807 15.0001 19.807C17.6603 19.807 19.8071 17.6602 19.8071 15C19.8071 12.3399 17.6603 10.193 15.0001 10.193ZM15.0001 18.1242C13.2798 18.1242 11.8759 16.7203 11.8759 15C11.8759 13.2797 13.2798 11.8758 15.0001 11.8758C16.7204 11.8758 18.1243 13.2797 18.1243 15C18.1243 16.7203 16.7204 18.1242 15.0001 18.1242ZM20.004 8.87579C19.3829 8.87579 18.8814 9.37736 18.8814 9.99845C18.8814 10.6195 19.3829 11.1211 20.004 11.1211C20.6251 11.1211 21.1267 10.6219 21.1267 9.99845C21.1269 9.85097 21.0979 9.7049 21.0416 9.56861C20.9852 9.43232 20.9026 9.30849 20.7983 9.2042C20.694 9.09992 20.5701 9.01723 20.4339 8.96088C20.2976 8.90452 20.1515 8.87561 20.004 8.87579ZM24.3704 15C24.3704 13.7063 24.3821 12.4242 24.3095 11.1328C24.2368 9.63283 23.8946 8.30158 22.7978 7.2047C21.6985 6.10548 20.3696 5.76564 18.8696 5.69298C17.5759 5.62033 16.2939 5.63204 15.0025 5.63204C13.7087 5.63204 12.4267 5.62033 11.1353 5.69298C9.63527 5.76564 8.30402 6.10783 7.20714 7.2047C6.10792 8.30392 5.76808 9.63283 5.69542 11.1328C5.62277 12.4266 5.63449 13.7086 5.63449 15C5.63449 16.2914 5.62277 17.5758 5.69542 18.8672C5.76808 20.3672 6.11027 21.6985 7.20714 22.7953C8.30636 23.8945 9.63527 24.2344 11.1353 24.307C12.429 24.3797 13.711 24.368 15.0025 24.368C16.2962 24.368 17.5782 24.3797 18.8696 24.307C20.3696 24.2344 21.7009 23.8922 22.7978 22.7953C23.897 21.6961 24.2368 20.3672 24.3095 18.8672C24.3845 17.5758 24.3704 16.2938 24.3704 15ZM22.3079 20.5266C22.1368 20.9531 21.9306 21.2719 21.6001 21.6C21.2696 21.9305 20.9532 22.1367 20.5267 22.3078C19.2939 22.7977 16.3665 22.6875 15.0001 22.6875C13.6337 22.6875 10.704 22.7977 9.47121 22.3102C9.04464 22.1391 8.72589 21.9328 8.39777 21.6024C8.0673 21.2719 7.86105 20.9555 7.68996 20.5289C7.20246 19.2938 7.31261 16.3664 7.31261 15C7.31261 13.6336 7.20246 10.7039 7.68996 9.47111C7.86105 9.04454 8.0673 8.72579 8.39777 8.39767C8.72824 8.06954 9.04464 7.86095 9.47121 7.68986C10.704 7.20236 13.6337 7.31251 15.0001 7.31251C16.3665 7.31251 19.2962 7.20236 20.529 7.68986C20.9556 7.86095 21.2743 8.0672 21.6025 8.39767C21.9329 8.72814 22.1392 9.04454 22.3103 9.47111C22.7978 10.7039 22.6876 13.6336 22.6876 15C22.6876 16.3664 22.7978 19.2938 22.3079 20.5266Z" fill="#F8F8F8"/>
</svg>
