<svg width="30" height="30" viewBox="0 0 30 30" fill="none" xmlns="http://www.w3.org/2000/svg">
<circle cx="15" cy="15" r="15" fill="#4303A4"/>
<path d="M14.995 3C8.381 3 3 8.382 3 14.996C3 21.616 8.381 27 14.995 27C21.615 27 27 21.615 27 14.996C27 8.382 21.615 3 14.995 3ZM8.908 19.404C10.2814 18.9833 11.7096 18.7683 13.146 18.766C15.56 18.766 17.943 19.378 20.038 20.536C20.163 20.604 20.276 20.828 20.328 21.108C20.378 21.388 20.358 21.675 20.276 21.824C20.2374 21.8949 20.185 21.9574 20.1221 22.0079C20.0591 22.0584 19.9867 22.0959 19.9091 22.1182C19.8316 22.1405 19.7503 22.1472 19.6701 22.1379C19.5899 22.1286 19.5124 22.1035 19.442 22.064C17.9032 21.2198 16.2105 20.6933 14.4644 20.5157C12.7183 20.3381 10.9543 20.513 9.277 21.03C9.2 21.0549 9.11882 21.0642 9.03818 21.0574C8.95754 21.0507 8.87906 21.0279 8.8073 20.9905C8.73555 20.9531 8.67196 20.9017 8.62023 20.8395C8.5685 20.7773 8.52967 20.7054 8.506 20.628C8.399 20.278 8.62 19.498 8.908 19.404ZM8.385 14.984C9.93655 14.5625 11.5372 14.349 13.145 14.349C16.039 14.349 18.912 15.049 21.455 16.375C21.634 16.465 21.765 16.619 21.825 16.807C21.8553 16.9019 21.8664 17.002 21.8574 17.1013C21.8485 17.2005 21.8198 17.297 21.773 17.385C21.546 17.829 21.28 18.128 21.113 18.128C20.9912 18.1275 20.8712 18.098 20.763 18.042C18.4122 16.8147 15.7979 16.1784 13.146 16.188C11.6709 16.185 10.2023 16.3818 8.78 16.773C8.68512 16.7989 8.58606 16.8059 8.48848 16.7936C8.39089 16.7812 8.2967 16.7498 8.21127 16.701C8.12584 16.6523 8.05085 16.5872 7.99058 16.5095C7.9303 16.4317 7.88594 16.3429 7.86 16.248C7.748 15.826 8.005 15.088 8.385 14.984V14.984ZM8.25 12.098C8.13744 12.1269 8.02028 12.1332 7.90527 12.1166C7.79026 12.0999 7.67969 12.0607 7.57993 12.0011C7.48017 11.9415 7.3932 11.8627 7.32405 11.7693C7.25489 11.676 7.20491 11.5698 7.177 11.457C7.054 10.959 7.365 10.381 7.817 10.267C9.56051 9.83757 11.3494 9.61966 13.145 9.618C16.595 9.618 19.901 10.394 22.969 11.925C23.1798 12.0298 23.3403 12.214 23.4153 12.4372C23.4904 12.6603 23.4737 12.9041 23.369 13.115C23.226 13.403 22.916 13.713 22.574 13.713C22.4399 13.7125 22.3075 13.6828 22.186 13.626C19.3806 12.2186 16.2836 11.4904 13.145 11.5C11.51 11.5 9.863 11.701 8.25 12.098Z" fill="#F8F8F8"/>
</svg>
