<svg width="25" height="25" viewBox="0 0 25 25" fill="none" xmlns="http://www.w3.org/2000/svg">
<g clip-path="url(#clip0_102_124)">
<path d="M5.66815 0.607443C4.96633 0.605463 4.27105 0.742235 3.62228 1.00989C2.9735 1.27755 2.38404 1.67082 1.88778 2.16708C1.39152 2.66334 0.998256 3.2528 0.730597 3.90157C0.462938 4.55035 0.326166 5.24563 0.328146 5.94744L0.328146 19.2674C0.326166 19.9693 0.462938 20.6645 0.730597 21.3133C0.998256 21.9621 1.39152 22.5515 1.88778 23.0478C2.38404 23.5441 2.9735 23.9373 3.62228 24.205C4.27105 24.4726 4.96633 24.6094 5.66815 24.6074H18.9881C19.69 24.6094 20.3852 24.4726 21.034 24.205C21.6828 23.9373 22.2723 23.5441 22.7685 23.0478C23.2648 22.5515 23.658 21.9621 23.9257 21.3133C24.1934 20.6645 24.3301 19.9693 24.3281 19.2674V5.94744C24.3301 5.24563 24.1934 4.55035 23.9257 3.90157C23.658 3.2528 23.2648 2.66334 22.7685 2.16708C22.2723 1.67082 21.6828 1.27755 21.034 1.00989C20.3852 0.742235 19.69 0.605463 18.9881 0.607443L5.66815 0.607443ZM12.1909 3.17319C14.5271 3.17319 16.6399 4.07619 18.2501 5.76294C19.4734 7.03269 20.1604 8.37969 20.5121 10.1542C20.6329 10.7444 20.6329 12.3532 20.5189 13.0169C20.1454 15.1275 18.9891 17.0193 17.2811 18.3142C16.6721 18.7754 15.1834 19.5764 14.9449 19.5764C14.8549 19.5764 14.8481 19.4864 14.8871 19.1152C14.9614 18.5212 15.0311 18.4004 15.3671 18.2594C15.9019 18.0374 16.8161 17.3842 17.3749 16.8262C18.3517 15.8496 19.0456 14.6265 19.3826 13.2869C19.5934 12.4619 19.5656 10.6297 19.3354 9.78294C18.6086 7.08669 16.4051 4.99419 13.7104 4.43094C12.9296 4.27119 11.5031 4.27119 10.7104 4.43094C7.9834 4.99419 5.72515 7.19319 5.03815 9.95919C4.8544 10.7122 4.8544 12.5452 5.03815 13.2952C5.4949 15.1274 6.67915 16.8059 8.2294 17.8064C8.53465 18.0097 8.9014 18.2167 9.0544 18.2797C9.38965 18.4237 9.46465 18.5459 9.52615 19.1347C9.56515 19.4984 9.5569 19.5997 9.47215 19.5997C9.4174 19.5997 9.00715 19.4234 8.5729 19.2164L8.5339 19.1857C6.06115 17.9707 4.47865 15.9127 3.90115 13.1737C3.7609 12.4664 3.73315 10.7834 3.87415 10.1347C4.2334 8.39244 4.92115 7.03344 6.0649 5.83044C7.71415 4.09119 9.83515 3.17319 12.1939 3.17319H12.1909ZM12.3281 5.98644C12.6989 5.98556 13.0689 6.02073 13.4329 6.09144C16.2191 6.71244 18.1909 9.49869 17.8076 12.2632C17.6554 13.3799 17.2729 14.2949 16.5934 15.1462C16.2574 15.5759 15.4406 16.2952 15.2966 16.2952C15.2726 16.2952 15.2494 16.0214 15.2494 15.6929V15.0869L15.6634 14.5912C17.2331 12.7124 17.1206 10.0874 15.4091 8.36919C14.7454 7.69719 13.9751 7.30194 12.9829 7.12344C12.3431 7.00269 12.2096 7.00269 11.5376 7.11519C10.5146 7.27944 9.7249 7.67319 9.0214 8.36919C7.30315 10.0724 7.18915 12.7124 8.7604 14.5912L9.1744 15.0869V15.6967C9.1744 16.0327 9.14665 16.3019 9.1114 16.3019C9.0844 16.3019 8.84965 16.1422 8.59915 15.9427L8.5639 15.9307C7.73215 15.2669 6.9979 14.0909 6.69265 12.9344C6.50965 12.2354 6.50965 10.9117 6.7009 10.2157C7.2049 8.33694 8.59165 6.87969 10.5101 6.19644C10.9204 6.05169 11.6419 5.97369 12.3221 5.98569L12.3281 5.98644ZM12.1954 8.97444C12.5081 8.97444 12.8164 9.03744 13.0436 9.15444C13.5274 9.40869 13.9309 9.89619 14.0824 10.4122C14.5474 11.9902 12.8756 13.3732 11.3591 12.6659H11.3479C10.6331 12.3337 10.2499 11.7089 10.2416 10.8959C10.2416 10.1617 10.6474 9.52494 11.3546 9.14994C11.5774 9.03294 11.8864 8.97369 12.1984 8.97369L12.1954 8.97444ZM12.1871 13.7054C13.1764 13.7017 13.8904 14.0527 14.1559 14.6737C14.3546 15.1387 14.2811 16.6034 13.9369 18.9749C13.7066 20.6309 13.5776 21.0487 13.2581 21.3307C12.8164 21.7207 12.1954 21.8309 11.6014 21.6194H11.5984C10.8836 21.3614 10.7306 21.0134 10.4336 18.9742C10.0946 16.6034 10.0196 15.1379 10.2199 14.6729C10.4809 14.0557 11.1919 13.7092 12.1879 13.7047L12.1871 13.7054Z" fill="white"/>
</g>
<defs>
<clipPath id="clip0_102_124">
<rect width="24" height="24" fill="white" transform="translate(0.328125 0.607422)"/>
</clipPath>
</defs>
</svg>
